<?xml version="1.0" encoding="UTF-8" standalone="no"?>
<!-- Created with Inkscape (http://www.inkscape.org/) -->

<svg
   width="96.655739mm"
   height="111.57435mm"
   viewBox="0 0 96.655739 111.57435"
   version="1.1"
   id="svg5"
   xml:space="preserve"
   inkscape:version="1.2.2 (b0a8486541, 2022-12-01)"
   sodipodi:docname="fuse_logo_for_github_revised.svg"
   inkscape:export-filename="../../storageBig8/work/holmsusa/fuseR/fuse_logo_meth.svg"
   inkscape:export-xdpi="96"
   inkscape:export-ydpi="96"
   xmlns:inkscape="http://www.inkscape.org/namespaces/inkscape"
   xmlns:sodipodi="http://sodipodi.sourceforge.net/DTD/sodipodi-0.dtd"
   xmlns="http://www.w3.org/2000/svg"
   xmlns:svg="http://www.w3.org/2000/svg"><sodipodi:namedview
     id="namedview7"
     pagecolor="#ffffff"
     bordercolor="#666666"
     borderopacity="1.0"
     inkscape:showpageshadow="2"
     inkscape:pageopacity="0.0"
     inkscape:pagecheckerboard="0"
     inkscape:deskcolor="#d1d1d1"
     inkscape:document-units="mm"
     showgrid="false"
     inkscape:zoom="1.5219183"
     inkscape:cx="389.63984"
     inkscape:cy="301.26453"
     inkscape:window-width="2494"
     inkscape:window-height="1371"
     inkscape:window-x="0"
     inkscape:window-y="0"
     inkscape:window-maximized="1"
     inkscape:current-layer="layer1" /><defs
     id="defs2"><clipPath
       clipPathUnits="userSpaceOnUse"
       id="clipPath527"><path
         d="M 376,0 V 2440 H 2920 V 0 Z"
         id="path525" /></clipPath><clipPath
       clipPathUnits="userSpaceOnUse"
       id="clipPath543"><path
         d="M 520,0 V 2440 H 2920 V 0 Z"
         id="path541" /></clipPath><clipPath
       clipPathUnits="userSpaceOnUse"
       id="clipPath553"><path
         d="M 376,0 V 2440 H 2920 V 0 Z"
         id="path551" /></clipPath><clipPath
       clipPathUnits="userSpaceOnUse"
       id="clipPath563"><path
         d="M 983,0 V 2440 H 2920 V 0 Z"
         id="path561" /></clipPath><clipPath
       clipPathUnits="userSpaceOnUse"
       id="clipPath573"><path
         d="M 376,0 V 2440 H 2920 V 0 Z"
         id="path571" /></clipPath></defs><g
     inkscape:label="Layer 1"
     inkscape:groupmode="layer"
     id="layer1"
     transform="translate(-47.598447,-52.328097)"><path
       sodipodi:type="star"
       style="fill:#e5e5e5;fill-opacity:1;stroke:#ff0f0f;stroke-width:1;stroke-linecap:round;stroke-dasharray:none;stroke-opacity:1"
       id="path966-0"
       inkscape:flatsided="true"
       sodipodi:sides="6"
       sodipodi:cx="99.515404"
       sodipodi:cy="128.37019"
       sodipodi:r1="55.209831"
       sodipodi:r2="47.813118"
       sodipodi:arg1="1.5713252"
       sodipodi:arg2="2.094924"
       inkscape:rounded="0"
       inkscape:randomized="0"
       d="m 99.486205,183.58002 -47.79851,-27.6302 0.0292,-55.20983 47.827709,-27.57962 47.798507,27.6302 -0.0292,55.20982 z"
       inkscape:transform-center-x="1.2537374e-06"
       inkscape:transform-center-y="-1.6172623e-06"
       transform="matrix(0.95,0,0,0.95,1.386676,-13.836412)" /><g
       aria-label="fuseR"
       id="text13256"
       style="font-size:17.6389px;line-height:1.25;font-family:KaTeX_Typewriter;-inkscape-font-specification:'KaTeX_Typewriter, Normal';letter-spacing:0px;word-spacing:0px;fill:#00bce3;fill-opacity:1;stroke:#000000;stroke-width:0.579186;stroke-linecap:round;stroke-dasharray:none;stroke-opacity:1"
       transform="matrix(2.3454271,0,0,2.2830026,-118.29909,-108.94206)"><text
         xml:space="preserve"
         style="font-style:normal;font-variant:normal;font-weight:normal;font-stretch:normal;font-size:12.3398px;line-height:1.25;font-family:'Nimbus Mono PS';-inkscape-font-specification:'Nimbus Mono PS, Normal';font-variant-ligatures:normal;font-variant-caps:normal;font-variant-numeric:normal;font-variant-east-asian:normal;letter-spacing:0px;word-spacing:0px;fill:#000000;fill-opacity:1;stroke:#000000;stroke-width:0.34071;stroke-dasharray:none;stroke-opacity:1"
         x="78.115028"
         y="90.325867"
         id="text449"
         transform="scale(0.98529461,1.0149249)"><tspan
           sodipodi:role="line"
           id="tspan501"
           x="78.115028"
           y="90.325867"
           style="font-style:normal;font-variant:normal;font-weight:normal;font-stretch:normal;font-size:12.3398px;font-family:'Nimbus Mono PS';-inkscape-font-specification:'Nimbus Mono PS, Normal';font-variant-ligatures:normal;font-variant-caps:normal;font-variant-numeric:normal;font-variant-east-asian:normal;fill:#000000;fill-opacity:1;stroke:#000000;stroke-width:0.34071;stroke-dasharray:none;stroke-opacity:1">Fuse</tspan></text><text
         xml:space="preserve"
         style="font-style:normal;font-variant:normal;font-weight:normal;font-stretch:normal;font-size:4.66673px;line-height:1.25;font-family:sans-serif;-inkscape-font-specification:'sans-serif, Normal';font-variant-ligatures:normal;font-variant-caps:normal;font-variant-numeric:normal;font-variant-east-asian:normal;letter-spacing:0px;word-spacing:0px;fill:#000000;fill-opacity:1;stroke-width:0.00201036;stroke-dasharray:none"
         x="52.734425"
         y="137.28682"
         id="text505"
         transform="scale(1.6129911,0.61996622)"><tspan
           sodipodi:role="line"
           id="tspan2408"
           x="52.734425"
           y="137.28682"
           style="stroke-width:0.00201036">meth</tspan></text></g><g
       id="g2406"
       transform="matrix(0.82683742,0,0,0.79761501,16.467132,29.222464)"><path
         d="M 138.68273,107.57143 57.824863,107.19387"
         style="fill:none;stroke:#00b50f;stroke-width:0.618168;stroke-linecap:butt;stroke-linejoin:miter;stroke-miterlimit:4;stroke-dasharray:3.70902, 0.618168;stroke-dashoffset:0;stroke-opacity:1"
         id="path585" /><g
         id="g521"
         transform="matrix(0.03488356,0,0,-0.02479147,40.859388,140.77847)"><g
           id="g523"
           clip-path="url(#clipPath527)"><path
             d="m 1278.75,1117.15 h 17.5 c 0.27,0 0.51,-0.2 0.51,-0.47 V 927.379 c 0,-0.27 -0.24,-0.5 -0.51,-0.5 h -17.5 c -0.31,0 -0.51,0.23 -0.51,0.5 v 189.301 c 0,0.27 0.2,0.47 0.51,0.47 z"
             style="fill:#000000;fill-opacity:1;fill-rule:nonzero;stroke:none"
             id="path529" /><path
             d="m 1278.71,1106.91 v 15.67 c 0,0.82 0.67,1.44 1.45,1.44 h 538.24 c 0.78,0 1.44,-0.62 1.44,-1.44 v -15.67 c 0,-0.78 -0.66,-1.4 -1.44,-1.4 h -538.24 c -0.78,0 -1.45,0.62 -1.45,1.4 z"
             style="fill:#000000;fill-opacity:1;fill-rule:nonzero;stroke:none"
             id="path531" /><path
             d="m 640.859,1110.12 v 17.5 c 0,0.27 0.231,0.5 0.512,0.5 h 188.16 c 0.27,0 0.469,-0.23 0.469,-0.5 v -17.5 c 0,-0.32 -0.199,-0.51 -0.469,-0.51 h -188.16 c -0.281,0 -0.512,0.19 -0.512,0.51 z"
             style="fill:#000000;fill-opacity:1;fill-rule:nonzero;stroke:none"
             id="path533" /><path
             d="m 723.629,1554.45 v 14.1 c 0,1.22 1.019,2.23 2.23,2.23 h 836.091 c 1.25,0 2.23,-1.01 2.23,-2.23 v -14.1 c 0,-1.21 -0.98,-2.22 -2.23,-2.22 H 725.859 c -1.211,0 -2.23,1.01 -2.23,2.22 z"
             style="fill:#000000;fill-opacity:1;fill-rule:nonzero;stroke:none"
             id="path535" /></g></g><g
         id="g537"
         transform="matrix(0.03488356,0,0,-0.02479147,40.859388,140.77847)"><g
           id="g539"
           clip-path="url(#clipPath543)"><path
             d="m 1120.59,1703.09 v 14.06 c 0,1.25 1.71,2.23 3.82,2.23 h 1445.16 c 2.11,0 3.83,-0.98 3.83,-2.23 v -14.06 c 0,-1.25 -1.72,-2.23 -3.83,-2.23 H 1124.41 c -2.11,0 -3.82,0.98 -3.82,2.23 z"
             style="fill:#000000;fill-opacity:1;fill-rule:nonzero;stroke:none"
             id="path545" /></g></g><g
         id="g547"
         transform="matrix(0.03488356,0,0,-0.02479147,40.859388,140.77847)"><g
           id="g549"
           clip-path="url(#clipPath553)"><path
             d="m 1804.3,1123.95 h 17.5 c 0.27,0 0.5,-0.24 0.5,-0.51 V 927.66 c 0,-0.281 -0.23,-0.512 -0.5,-0.512 h -17.5 c -0.28,0 -0.51,0.231 -0.51,0.512 v 195.78 c 0,0.27 0.23,0.51 0.51,0.51 z"
             style="fill:#000000;fill-opacity:1;fill-rule:nonzero;stroke:none"
             id="path555" /></g></g><g
         id="g557"
         transform="matrix(0.03488356,0,0,-0.02479147,40.859388,140.77847)"><g
           id="g559"
           clip-path="url(#clipPath563)"><path
             d="m 2554.65,1717.62 h 19.26 c 0.31,0 0.54,-0.94 0.54,-2.11 V 931.02 c 0,-1.18 -0.23,-2.11 -0.54,-2.11 h -19.26 c -0.31,0 -0.59,0.93 -0.59,2.11 v 784.49 c 0,1.17 0.28,2.11 0.59,2.11 z"
             style="fill:#000000;fill-opacity:1;fill-rule:nonzero;stroke:none"
             id="path565" /></g></g><g
         id="g567"
         transform="matrix(0.03488356,0,0,-0.02479147,40.859388,140.77847)"><g
           id="g569"
           clip-path="url(#clipPath573)"><path
             d="m 811.449,1122.58 h 17.461 c 0.309,0 0.539,-0.24 0.539,-0.55 V 925.391 c 0,-0.313 -0.23,-0.512 -0.539,-0.512 h -17.461 c -0.32,0 -0.551,0.199 -0.551,0.512 v 196.639 c 0,0.31 0.231,0.55 0.551,0.55 z"
             style="fill:#000000;fill-opacity:1;fill-rule:nonzero;stroke:none"
             id="path575" /><path
             d="m 640.98,1116.91 h 17.54 c 0.269,0 0.5,-0.19 0.5,-0.5 V 926.09 c 0,-0.27 -0.231,-0.5 -0.5,-0.5 h -17.54 c -0.281,0 -0.511,0.23 -0.511,0.5 v 190.32 c 0,0.31 0.23,0.5 0.511,0.5 z"
             style="fill:#000000;fill-opacity:1;fill-rule:nonzero;stroke:none"
             id="path577" /><path
             d="m 723.52,1554.57 h 16.21 c 0.622,0 1.168,-0.55 1.168,-1.17 v -439.73 c 0,-0.66 -0.546,-1.17 -1.168,-1.17 h -16.21 c -0.629,0 -1.18,0.51 -1.18,1.17 v 439.73 c 0,0.62 0.551,1.17 1.18,1.17 z"
             style="fill:#000000;fill-opacity:1;fill-rule:nonzero;stroke:none"
             id="path579" /><path
             d="m 1546.33,1568.44 h 16.13 c 0.66,0 1.21,-0.55 1.21,-1.21 v -447 c 0,-0.66 -0.55,-1.17 -1.21,-1.17 h -16.13 c -0.67,0 -1.21,0.51 -1.21,1.17 v 447 c 0,0.66 0.54,1.21 1.21,1.21 z"
             style="fill:#000000;fill-opacity:1;fill-rule:nonzero;stroke:none"
             id="path581" /><path
             d="m 1120.12,1716.6 h 18.32 c 0.04,0 0.08,-0.19 0.08,-0.39 V 1567.7 c 0,-0.2 -0.04,-0.4 -0.08,-0.4 h -18.32 c -0.08,0 -0.12,0.2 -0.12,0.4 v 148.51 c 0,0.2 0.04,0.39 0.12,0.39 z"
             style="fill:#000000;fill-opacity:1;fill-rule:nonzero;stroke:none"
             id="path583" /></g></g><path
         d="m 56.774154,128.74038 h 81.677726 v -0.93631 H 56.774154 Z"
         style="fill:#c0c0c0;fill-opacity:1;fill-rule:nonzero;stroke:none;stroke-width:0.031546"
         id="path617" /><path
         d="m 54.158894,130.03233 h 81.677726 v -0.9352 H 54.158894 Z"
         style="fill:#c0c0c0;fill-opacity:1;fill-rule:nonzero;stroke:none;stroke-width:0.031546"
         id="path619" /><path
         d="m 55.204998,131.32547 h 81.677722 v -0.93642 H 55.204998 Z"
         style="fill:#c0c0c0;fill-opacity:1;fill-rule:nonzero;stroke:none;stroke-width:0.031546"
         id="path621" /><path
         d="m 53.635841,132.61742 h 81.677739 v -0.9352 H 53.635841 Z"
         style="fill:#c0c0c0;fill-opacity:1;fill-rule:nonzero;stroke:none;stroke-width:0.031546"
         id="path623" /><path
         d="m 54.158894,133.91079 h 81.677726 v -0.93642 H 54.158894 Z"
         style="fill:#c0c0c0;fill-opacity:1;fill-rule:nonzero;stroke:none;stroke-width:0.031546"
         id="path625" /><path
         d="m 62.576894,128.76724 h 1.056866 v -0.97322 h -1.056866 z"
         style="fill:#002dfc;fill-opacity:1;fill-rule:nonzero;stroke:none;stroke-width:0.031546"
         id="path645" /><path
         d="m 62.576894,130.05807 h 1.056866 v -0.9721 h -1.056866 z"
         style="fill:#fc0600;fill-opacity:1;fill-rule:nonzero;stroke:none;stroke-width:0.031546"
         id="path647" /><path
         d="m 62.576894,131.34888 h 1.056866 v -0.97211 h -1.056866 z"
         style="fill:#fc0600;fill-opacity:1;fill-rule:nonzero;stroke:none;stroke-width:0.031546"
         id="path649" /><path
         d="m 62.576894,132.64105 h 1.056866 v -0.97311 h -1.056866 z"
         style="fill:#fc0600;fill-opacity:1;fill-rule:nonzero;stroke:none;stroke-width:0.031546"
         id="path651" /><path
         d="m 62.576894,133.93185 h 1.056866 v -0.97198 h -1.056866 z"
         style="fill:#fc0600;fill-opacity:1;fill-rule:nonzero;stroke:none;stroke-width:0.031546"
         id="path653" /><path
         d="m 68.574279,128.76724 h 1.058229 v -0.97322 h -1.058229 z"
         style="fill:#002dfc;fill-opacity:1;fill-rule:nonzero;stroke:none;stroke-width:0.031546"
         id="path655" /><path
         d="m 68.574279,130.05807 h 1.058229 v -0.9721 h -1.058229 z"
         style="fill:#fc0600;fill-opacity:1;fill-rule:nonzero;stroke:none;stroke-width:0.031546"
         id="path657" /><path
         d="m 68.574279,131.34888 h 1.058229 v -0.97211 h -1.058229 z"
         style="fill:#002dfc;fill-opacity:1;fill-rule:nonzero;stroke:none;stroke-width:0.031546"
         id="path659" /><path
         d="m 68.574279,132.64105 h 1.058229 v -0.97311 h -1.058229 z"
         style="fill:#fc0600;fill-opacity:1;fill-rule:nonzero;stroke:none;stroke-width:0.031546"
         id="path661" /><path
         d="m 68.574279,133.93185 h 1.058229 v -0.97198 h -1.058229 z"
         style="fill:#fc0600;fill-opacity:1;fill-rule:nonzero;stroke:none;stroke-width:0.031546"
         id="path663" /><path
         d="m 84.963178,128.76724 h 1.056865 v -0.97322 h -1.056865 z"
         style="fill:#fc0600;fill-opacity:1;fill-rule:nonzero;stroke:none;stroke-width:0.031546"
         id="path665" /><path
         d="m 84.963178,130.05807 h 1.056865 v -0.9721 h -1.056865 z"
         style="fill:#002dfc;fill-opacity:1;fill-rule:nonzero;stroke:none;stroke-width:0.031546"
         id="path667" /><path
         d="m 84.963178,131.34888 h 1.056865 v -0.97211 h -1.056865 z"
         style="fill:#fc0600;fill-opacity:1;fill-rule:nonzero;stroke:none;stroke-width:0.031546"
         id="path669" /><path
         d="m 84.963178,132.64105 h 1.056865 v -0.97311 h -1.056865 z"
         style="fill:#002dfc;fill-opacity:1;fill-rule:nonzero;stroke:none;stroke-width:0.031546"
         id="path671" /><path
         d="m 84.963178,133.93185 h 1.056865 v -0.97198 h -1.056865 z"
         style="fill:#002dfc;fill-opacity:1;fill-rule:nonzero;stroke:none;stroke-width:0.031546"
         id="path673" /><path
         d="m 103.22641,128.76724 h 1.05824 v -0.97322 h -1.05824 z"
         style="fill:#002dfc;fill-opacity:1;fill-rule:nonzero;stroke:none;stroke-width:0.031546"
         id="path675" /><path
         d="m 103.22641,130.05807 h 1.05824 v -0.9721 h -1.05824 z"
         style="fill:#fc0600;fill-opacity:1;fill-rule:nonzero;stroke:none;stroke-width:0.031546"
         id="path677" /><path
         d="m 103.22641,131.34888 h 1.05824 v -0.97211 h -1.05824 z"
         style="fill:#002dfc;fill-opacity:1;fill-rule:nonzero;stroke:none;stroke-width:0.031546"
         id="path679" /><path
         d="m 103.22641,132.64105 h 1.05824 v -0.97311 h -1.05824 z"
         style="fill:#002dfc;fill-opacity:1;fill-rule:nonzero;stroke:none;stroke-width:0.031546"
         id="path681" /><path
         d="m 103.22641,133.93185 h 1.05824 v -0.97198 h -1.05824 z"
         style="fill:#002dfc;fill-opacity:1;fill-rule:nonzero;stroke:none;stroke-width:0.031546"
         id="path683" /><path
         d="m 129.3818,128.76724 h 1.05687 v -0.97322 h -1.05687 z"
         style="fill:#fc0600;fill-opacity:1;fill-rule:nonzero;stroke:none;stroke-width:0.031546"
         id="path685" /><path
         d="m 129.3818,130.05807 h 1.05687 v -0.9721 h -1.05687 z"
         style="fill:#002dfc;fill-opacity:1;fill-rule:nonzero;stroke:none;stroke-width:0.031546"
         id="path687" /><path
         d="m 129.3818,131.34888 h 1.05687 v -0.97211 h -1.05687 z"
         style="fill:#fc0600;fill-opacity:1;fill-rule:nonzero;stroke:none;stroke-width:0.031546"
         id="path689" /><path
         d="m 129.3818,132.64105 h 1.05687 v -0.97311 h -1.05687 z"
         style="fill:#fc0600;fill-opacity:1;fill-rule:nonzero;stroke:none;stroke-width:0.031546"
         id="path691" /><path
         d="m 129.3818,133.93185 h 1.05687 v -0.97198 h -1.05687 z"
         style="fill:#fc0600;fill-opacity:1;fill-rule:nonzero;stroke:none;stroke-width:0.031546"
         id="path693" /><path
         d="m 56.654384,118.9788 h 81.677726 v -0.93631 H 56.654384 Z"
         style="fill:#c0c0c0;fill-opacity:1;fill-rule:nonzero;stroke:none;stroke-width:0.031546"
         id="path617-6" /><path
         d="m 54.039126,120.27075 h 81.677724 v -0.9352 H 54.039126 Z"
         style="fill:#c0c0c0;fill-opacity:1;fill-rule:nonzero;stroke:none;stroke-width:0.031546"
         id="path619-4" /><path
         d="m 55.08523,121.56388 h 81.67772 v -0.93642 H 55.08523 Z"
         style="fill:#c0c0c0;fill-opacity:1;fill-rule:nonzero;stroke:none;stroke-width:0.031546"
         id="path621-0" /><path
         d="M 53.516072,122.85584 H 135.1938 v -0.9352 H 53.516072 Z"
         style="fill:#c0c0c0;fill-opacity:1;fill-rule:nonzero;stroke:none;stroke-width:0.031546"
         id="path623-0" /><path
         d="m 54.039126,124.1492 h 81.677724 v -0.93641 H 54.039126 Z"
         style="fill:#c0c0c0;fill-opacity:1;fill-rule:nonzero;stroke:none;stroke-width:0.031546"
         id="path625-4" /><path
         d="m 62.457125,119.00566 h 1.056864 v -0.97323 h -1.056864 z"
         style="fill:#002dfc;fill-opacity:1;fill-rule:nonzero;stroke:none;stroke-width:0.031546"
         id="path645-6" /><path
         d="m 62.457125,120.29649 h 1.056864 v -0.9721 h -1.056864 z"
         style="fill:#fc0600;fill-opacity:1;fill-rule:nonzero;stroke:none;stroke-width:0.031546"
         id="path647-2" /><path
         d="m 62.457125,121.5873 h 1.056864 v -0.97212 h -1.056864 z"
         style="fill:#fc0600;fill-opacity:1;fill-rule:nonzero;stroke:none;stroke-width:0.031546"
         id="path649-6" /><path
         d="m 62.457125,122.87946 h 1.056864 v -0.9731 h -1.056864 z"
         style="fill:#fc0600;fill-opacity:1;fill-rule:nonzero;stroke:none;stroke-width:0.031546"
         id="path651-7" /><path
         d="m 62.457125,124.17027 h 1.056864 v -0.97198 h -1.056864 z"
         style="fill:#fc0600;fill-opacity:1;fill-rule:nonzero;stroke:none;stroke-width:0.031546"
         id="path653-5" /><path
         d="m 68.454511,119.00566 h 1.058229 v -0.97323 h -1.058229 z"
         style="fill:#002dfc;fill-opacity:1;fill-rule:nonzero;stroke:none;stroke-width:0.031546"
         id="path655-6" /><path
         d="m 68.454511,120.29649 h 1.058229 v -0.9721 h -1.058229 z"
         style="fill:#fc0600;fill-opacity:1;fill-rule:nonzero;stroke:none;stroke-width:0.031546"
         id="path657-9" /><path
         d="m 68.454511,121.5873 h 1.058229 v -0.97212 h -1.058229 z"
         style="fill:#002dfc;fill-opacity:1;fill-rule:nonzero;stroke:none;stroke-width:0.031546"
         id="path659-8" /><path
         d="m 68.454511,122.87946 h 1.058229 v -0.9731 h -1.058229 z"
         style="fill:#fc0600;fill-opacity:1;fill-rule:nonzero;stroke:none;stroke-width:0.031546"
         id="path661-7" /><path
         d="m 68.454511,124.17027 h 1.058229 v -0.97198 h -1.058229 z"
         style="fill:#fc0600;fill-opacity:1;fill-rule:nonzero;stroke:none;stroke-width:0.031546"
         id="path663-2" /><path
         d="m 84.843409,119.00566 h 1.056864 v -0.97323 h -1.056864 z"
         style="fill:#fc0600;fill-opacity:1;fill-rule:nonzero;stroke:none;stroke-width:0.031546"
         id="path665-8" /><path
         d="m 84.843409,120.29649 h 1.056864 v -0.9721 h -1.056864 z"
         style="fill:#002dfc;fill-opacity:1;fill-rule:nonzero;stroke:none;stroke-width:0.031546"
         id="path667-2" /><path
         d="m 84.843409,121.5873 h 1.056864 v -0.97212 h -1.056864 z"
         style="fill:#fc0600;fill-opacity:1;fill-rule:nonzero;stroke:none;stroke-width:0.031546"
         id="path669-9" /><path
         d="m 84.843409,122.87946 h 1.056864 v -0.9731 h -1.056864 z"
         style="fill:#002dfc;fill-opacity:1;fill-rule:nonzero;stroke:none;stroke-width:0.031546"
         id="path671-9" /><path
         d="m 84.843409,124.17027 h 1.056864 v -0.97198 h -1.056864 z"
         style="fill:#002dfc;fill-opacity:1;fill-rule:nonzero;stroke:none;stroke-width:0.031546"
         id="path673-6" /><path
         d="m 103.10665,119.00566 h 1.05823 v -0.97323 h -1.05823 z"
         style="fill:#002dfc;fill-opacity:1;fill-rule:nonzero;stroke:none;stroke-width:0.031546"
         id="path675-0" /><path
         d="m 103.10665,120.29649 h 1.05823 v -0.9721 h -1.05823 z"
         style="fill:#fc0600;fill-opacity:1;fill-rule:nonzero;stroke:none;stroke-width:0.031546"
         id="path677-2" /><path
         d="m 103.10665,121.5873 h 1.05823 v -0.97212 h -1.05823 z"
         style="fill:#002dfc;fill-opacity:1;fill-rule:nonzero;stroke:none;stroke-width:0.031546"
         id="path679-7" /><path
         d="m 103.10665,122.87946 h 1.05823 v -0.9731 h -1.05823 z"
         style="fill:#002dfc;fill-opacity:1;fill-rule:nonzero;stroke:none;stroke-width:0.031546"
         id="path681-6" /><path
         d="m 103.10665,124.17027 h 1.05823 v -0.97198 h -1.05823 z"
         style="fill:#002dfc;fill-opacity:1;fill-rule:nonzero;stroke:none;stroke-width:0.031546"
         id="path683-1" /><path
         d="m 129.26204,119.00566 h 1.05687 v -0.97323 h -1.05687 z"
         style="fill:#fc0600;fill-opacity:1;fill-rule:nonzero;stroke:none;stroke-width:0.031546"
         id="path685-3" /><path
         d="m 129.26204,120.29649 h 1.05687 v -0.9721 h -1.05687 z"
         style="fill:#002dfc;fill-opacity:1;fill-rule:nonzero;stroke:none;stroke-width:0.031546"
         id="path687-2" /><path
         d="m 129.26204,121.5873 h 1.05687 v -0.97212 h -1.05687 z"
         style="fill:#fc0600;fill-opacity:1;fill-rule:nonzero;stroke:none;stroke-width:0.031546"
         id="path689-1" /><path
         d="m 129.26204,122.87946 h 1.05687 v -0.9731 h -1.05687 z"
         style="fill:#fc0600;fill-opacity:1;fill-rule:nonzero;stroke:none;stroke-width:0.031546"
         id="path691-5" /><path
         d="m 129.26204,124.17027 h 1.05687 v -0.97198 h -1.05687 z"
         style="fill:#fc0600;fill-opacity:1;fill-rule:nonzero;stroke:none;stroke-width:0.031546"
         id="path693-9" /></g></g></svg>
